
<svg width="459" height="459" viewBox="0 0 459 459" fill="none" xmlns="http://www.w3.org/2000/svg">
<path d="M165.322 123.817C174.916 118.655 176.423 106.502 188.434 100.125C200.433 94.0029 204.377 97.0391 217.145 89.0638C230.057 81.1359 245.258 78.4219 250.768 74.3192C256.391 70.1847 259.024 75.3589 267.471 71.243C276.116 67.1534 281.82 66.3827 290.278 66.2441C298.647 65.8963 323.473 63.1157 332.275 60.1313C341.156 56.8328 352.006 60.3328 358.101 61.315C360.197 61.6114 361.541 62.0462 362.789 62.5133C362.902 62.5624 362.984 62.6228 363.047 62.6917C363.064 62.709 363.073 62.7265 363.095 62.7451C363.135 62.7644 363.17 62.7841 363.199 62.8041C363.259 62.844 363.3 62.8852 363.33 62.9273C363.441 63.0956 363.399 63.2806 363.395 63.4659C363.395 63.4662 363.395 63.4664 363.395 63.4667C363.479 63.9333 363.031 64.3635 362.455 64.4036C359.387 64.5877 354.858 65.3434 349.59 67.2463C339.832 70.9069 338.489 67.4644 325.392 70.6862C312.198 74.1563 305.218 78.6632 289.542 80.4329C273.744 82.5995 273.008 91.5857 251.002 94.8787C228.748 99.0133 230.369 108.36 212.608 120.021C194.847 131.787 170.744 145.102 161.59 154.684C161.384 154.893 161.176 155.105 160.967 155.319C151.881 164.582 141.16 177.738 129.726 191.737C117.858 206.088 109.254 227.41 99.4323 245.384C89.2057 263.245 78.6839 290.938 74.4176 304.082C70.0353 317.125 69.1023 320.481 68.6367 333.805C68.4288 341.438 67.0485 351.737 64.7007 360.543C63.5698 364.996 61.8864 364.085 61.1097 359.496C60.0329 352.64 61.1711 347.206 59.3717 343.713C55.8344 336.541 54.5717 333.116 58.0523 324.744C61.5817 316.452 57.0164 311.359 58.5486 306.464C60.316 301.421 62.6217 302.202 67.0161 276.276C71.9273 250.357 77.5202 236.736 81.0713 227.342C84.6525 217.84 96.803 200.534 105.16 186.461C112.889 172.226 134.522 148.028 143.963 137.559C144.161 137.325 144.353 137.096 144.537 136.872C153.309 126.448 155.841 129.092 165.322 123.817Z" fill="#55194F"/>
<path d="M204.258 171.054C211.933 166.924 213.138 157.202 222.747 152.1C232.347 147.202 235.501 149.631 245.716 143.251C256.046 136.909 268.206 134.737 272.614 131.455C277.113 128.148 279.219 132.287 285.977 128.994C292.893 125.723 297.456 125.106 304.223 124.995C310.918 124.717 330.778 122.493 337.82 120.105C344.925 117.466 353.605 120.266 358.48 121.052C360.158 121.289 361.233 121.637 362.231 122.011C362.322 122.05 362.388 122.098 362.438 122.153C362.453 122.18 362.508 122.211 362.56 122.243C362.607 122.275 362.64 122.308 362.664 122.342C362.752 122.477 362.719 122.624 362.716 122.773C362.716 122.773 362.716 122.773 362.716 122.773C362.784 123.147 362.425 123.491 361.964 123.523C359.51 123.67 355.887 124.275 351.672 125.797C343.865 128.725 342.792 125.972 332.313 128.549C321.758 131.325 316.175 134.931 303.634 136.346C290.995 138.08 290.406 145.269 272.802 147.903C254.999 151.211 256.295 158.688 242.087 168.017C227.878 177.43 208.595 188.082 201.272 195.747C201.107 195.915 200.941 196.084 200.773 196.255C193.505 203.665 184.928 214.19 175.781 225.39C166.286 236.871 159.403 253.928 151.546 268.307C143.365 282.596 134.947 304.75 131.534 315.265C128.028 325.7 127.282 328.385 126.909 339.044C126.743 345.151 125.639 353.39 123.761 360.434C122.856 363.997 121.509 363.268 120.888 359.597C120.026 354.112 120.937 349.765 119.497 346.97C116.667 341.233 115.657 338.493 118.442 331.795C121.265 325.161 117.613 321.087 118.839 317.171C120.253 313.137 122.097 313.762 125.613 293.021C129.542 272.286 134.016 261.388 136.857 253.874C139.722 246.272 149.442 232.427 156.128 221.169C162.312 209.781 179.617 190.423 187.17 182.047C187.329 181.86 187.482 181.677 187.63 181.498C194.647 173.158 196.673 175.273 204.258 171.054Z" fill="#55194F"/>
<path d="M235.806 209.243C241.946 205.939 242.911 198.162 250.598 194.08C258.277 190.162 260.801 192.105 268.973 187.001C277.237 181.927 286.965 180.19 290.491 177.564C294.09 174.918 295.776 178.23 301.182 175.596C306.714 172.978 310.365 172.485 315.778 172.396C321.134 172.174 337.022 170.394 342.656 168.484C348.34 166.373 355.284 168.613 359.184 169.242C360.526 169.432 361.386 169.71 362.185 170.009C362.257 170.04 362.31 170.079 362.35 170.123C362.361 170.166 362.513 170.221 362.531 170.274C362.602 170.381 362.575 170.5 362.573 170.618C362.573 170.619 362.573 170.619 362.573 170.619C362.627 170.918 362.34 171.193 361.971 171.218C360.008 171.336 357.109 171.82 353.737 173.038C347.492 175.381 346.633 173.177 338.251 175.239C329.806 177.46 325.34 180.345 315.307 181.477C305.196 182.864 304.725 188.615 290.641 190.723C276.399 193.369 277.436 199.351 266.069 206.814C254.702 214.344 239.276 222.865 233.418 228.998C233.286 229.132 233.153 229.267 233.019 229.404C227.204 235.332 220.342 243.752 213.024 252.712C205.429 261.897 199.923 275.543 193.637 287.046C187.092 298.477 180.358 316.2 177.627 324.612C174.823 332.96 174.225 335.108 173.927 343.636C173.794 348.521 172.911 355.112 171.408 360.748C170.685 363.598 169.607 363.014 169.11 360.078C168.421 355.69 169.149 352.212 167.998 349.976C165.734 345.386 164.926 343.195 167.153 337.837C169.412 332.529 166.49 329.27 167.471 326.137C168.602 322.91 170.078 323.41 172.89 306.817C176.033 290.229 179.613 281.511 181.886 275.499C184.178 269.418 191.954 258.342 197.302 249.335C202.249 240.225 216.094 224.738 222.136 218.038C222.263 217.888 222.386 217.741 222.504 217.598C228.118 210.927 229.738 212.619 235.806 209.243Z" fill="#55194F"/>
<path d="M261.645 240.394C266.557 237.751 267.329 231.529 273.478 228.264C279.622 225.129 281.641 226.684 288.178 222.601C294.789 218.542 302.572 217.152 305.393 215.051C308.272 212.934 309.62 215.584 313.945 213.476C318.372 211.383 321.292 210.988 325.623 210.917C329.907 210.739 342.618 209.315 347.125 207.787C351.672 206.098 357.227 207.89 360.348 208.393C361.421 208.545 362.109 208.768 362.748 209.007C362.806 209.032 362.848 209.063 362.88 209.098C362.889 209.132 363.01 209.176 363.025 209.219C363.082 209.305 363.06 209.4 363.058 209.495C363.058 209.495 363.058 209.495 363.058 209.495C363.102 209.734 362.872 209.954 362.577 209.975C361.006 210.069 358.688 210.456 355.99 211.43C350.994 213.304 350.307 211.542 343.601 213.191C336.845 214.968 333.272 217.276 325.246 218.182C317.157 219.291 316.78 223.892 305.513 225.578C294.119 227.695 294.949 232.48 285.856 238.451C276.762 244.475 264.421 251.292 259.734 256.198C259.629 256.305 259.522 256.414 259.415 256.523C254.763 261.266 249.274 268.002 243.42 275.169C237.343 282.517 232.938 293.434 227.909 302.637C222.673 311.781 217.286 325.96 215.102 332.69C212.858 339.368 212.38 341.086 212.142 347.908C212.036 351.816 211.329 357.089 210.127 361.598C209.548 363.878 208.686 363.411 208.288 361.062C207.737 357.551 208.32 354.77 207.398 352.981C205.587 349.309 204.941 347.556 206.723 343.269C208.53 339.023 206.192 336.416 206.977 333.909C207.882 331.327 209.062 331.728 211.312 318.453C213.827 305.183 216.69 298.209 218.509 293.399C220.342 288.534 226.563 279.673 230.842 272.468C234.799 265.18 245.875 252.79 250.709 247.43C250.811 247.31 250.909 247.193 251.003 247.079C255.494 241.741 256.791 243.095 261.645 240.394Z" fill="#D56059"/>
<path d="M281.715 264.716C285.645 262.601 286.262 257.623 291.182 255.011C296.097 252.504 297.712 253.747 302.942 250.481C308.231 247.233 314.457 246.122 316.714 244.441C319.017 242.748 320.096 244.867 323.556 243.181C327.097 241.506 329.433 241.191 332.898 241.134C336.326 240.992 346.494 239.853 350.1 238.63C353.737 237.279 358.182 238.713 360.678 239.115C361.537 239.237 362.087 239.415 362.598 239.606C362.684 239.646 362.747 239.706 362.82 239.776C362.865 239.845 362.848 239.92 362.846 239.996C362.846 239.997 362.846 239.997 362.846 239.997C362.881 240.188 362.697 240.364 362.462 240.381C361.205 240.456 359.35 240.766 357.192 241.545C353.195 243.045 352.645 241.634 347.28 242.954C341.876 244.376 339.017 246.222 332.596 246.947C326.126 247.834 325.824 251.515 316.811 252.864C307.695 254.557 308.359 258.386 301.085 263.162C293.81 267.982 283.937 273.435 280.188 277.36C280.103 277.446 280.018 277.532 279.932 277.62C276.211 281.414 271.82 286.803 267.136 292.537C262.275 298.415 258.751 307.148 254.728 314.51C250.539 321.826 246.229 333.169 244.482 338.553C242.687 343.895 242.304 345.27 242.114 350.727C242.029 353.854 241.463 358.072 240.501 361.679C240.038 363.503 239.348 363.13 239.03 361.25C238.589 358.442 239.055 356.216 238.318 354.785C236.869 351.848 236.352 350.445 237.778 347.016C239.223 343.619 237.353 341.533 237.981 339.528C238.705 337.463 239.649 337.783 241.449 327.163C243.461 316.547 245.751 310.967 247.206 307.12C248.673 303.228 253.65 296.139 257.073 290.375C260.239 284.544 269.099 274.633 272.967 270.344C273.048 270.248 273.126 270.154 273.202 270.063C276.795 265.793 277.832 266.876 281.715 264.716Z" fill="#D56059"/>
<path d="M298.173 284.573C301.316 282.881 301.81 278.899 305.746 276.809C309.678 274.803 310.97 275.798 315.154 273.185C319.385 270.587 324.366 269.697 326.172 268.353C328.014 266.998 328.877 268.694 331.645 267.345C334.478 266.005 336.347 265.752 339.118 265.707C341.861 265.593 349.995 264.682 352.88 263.704C355.79 262.623 359.345 263.77 361.342 264.092C362.029 264.189 362.47 264.331 362.879 264.484C362.947 264.516 362.997 264.564 363.056 264.62C363.092 264.675 363.079 264.736 363.077 264.797C363.077 264.797 363.077 264.797 363.077 264.797C363.105 264.95 362.958 265.091 362.769 265.104C361.764 265.164 360.28 265.412 358.554 266.035C355.356 267.235 354.916 266.107 350.624 267.162C346.301 268.299 344.014 269.776 338.877 270.356C333.7 271.066 333.459 274.011 326.248 275.09C318.956 276.445 319.487 279.507 313.667 283.328C307.847 287.184 299.949 291.547 296.95 294.687C296.882 294.755 296.814 294.825 296.745 294.895C293.768 297.93 290.255 302.241 286.508 306.828C282.619 311.531 279.8 318.518 276.582 324.407C273.231 330.26 269.783 339.334 268.385 343.641C266.949 347.915 266.643 349.015 266.491 353.381C266.423 355.883 265.97 359.257 265.201 362.143C264.831 363.602 264.279 363.303 264.024 361.8C263.672 359.553 264.045 357.773 263.455 356.628C262.296 354.278 261.882 353.156 263.023 350.412C264.179 347.695 262.683 346.026 263.185 344.422C263.764 342.77 264.52 343.026 265.96 334.53C267.569 326.037 269.402 321.574 270.566 318.496C271.739 315.382 275.72 309.711 278.459 305.1C280.992 300.435 288.08 292.506 291.174 289.076C291.239 288.999 291.302 288.924 291.362 288.85C294.236 285.434 295.066 286.301 298.173 284.573Z" fill="#D56059"/>
<path d="M311.851 301.09C314.242 299.612 315.072 297.064 318.104 295.338C321.142 293.673 321.97 294.116 325.325 292.125C328.709 290.151 332.548 289.196 334.04 288.282C335.554 287.363 336.072 288.242 338.307 287.274C340.59 286.316 342.049 286.055 344.215 285.861C346.352 285.614 352.828 284.747 355.146 284.167C357.478 283.506 360.277 284.074 361.874 284.248C362.422 284.299 362.773 284.378 363.1 284.463C363.155 284.481 363.196 284.507 363.243 284.537C363.272 284.567 363.262 284.599 363.262 284.632C363.262 284.632 363.262 284.632 363.262 284.632C363.287 284.714 363.17 284.787 363.018 284.793C362.212 284.816 361.024 284.949 359.629 285.302C357.039 285.99 356.707 285.388 353.242 286.095C349.749 286.868 347.835 287.78 343.733 288.429C339.618 289.177 339.172 290.817 333.489 292.107C327.778 293.606 327.872 295.334 323.066 298.355C318.257 301.408 312.118 305.318 309.672 307.827C309.616 307.882 309.56 307.937 309.504 307.994C307.062 310.427 304.132 313.879 301.176 317.668C298.114 321.539 295.583 327.081 293.149 331.939C290.611 336.761 288.068 344.141 287.102 347.631C286.105 351.097 285.897 351.976 285.677 355.471C285.567 357.473 285.256 360.198 284.844 362.515C284.651 363.686 284.352 363.436 284.217 362.242C284.035 360.455 284.266 359.032 283.973 358.133C283.401 356.289 283.204 355.426 283.908 353.222C284.625 351.034 283.894 349.782 284.239 348.505C284.645 347.189 284.981 347.328 286.326 340.639C287.803 333.965 289.296 330.471 290.26 328.06C291.229 325.627 294.169 321.037 296.404 317.438C298.47 313.804 304.007 307.504 306.533 304.89C306.586 304.831 306.637 304.774 306.687 304.718C309.046 302.126 309.497 302.59 311.851 301.09Z" fill="#E8891F"/>
<path d="M322.081 313.472C323.993 312.29 324.658 310.251 327.084 308.871C329.513 307.538 330.176 307.892 332.86 306.3C335.567 304.72 338.639 303.957 339.832 303.226C341.043 302.49 341.458 303.193 343.246 302.419C345.072 301.652 346.239 301.444 347.972 301.289C349.682 301.091 354.863 300.398 356.717 299.934C358.583 299.405 360.822 299.859 362.099 299.998C362.537 300.039 362.818 300.102 363.08 300.17C363.124 300.184 363.156 300.205 363.194 300.23C363.218 300.254 363.21 300.279 363.21 300.305C363.21 300.305 363.21 300.305 363.21 300.305C363.229 300.371 363.136 300.43 363.015 300.434C362.369 300.453 361.419 300.559 360.303 300.841C358.231 301.392 357.966 300.91 355.194 301.476C352.399 302.094 350.868 302.824 347.587 303.343C344.295 303.941 343.938 305.253 339.391 306.286C334.822 307.485 334.898 308.867 331.053 311.284C327.206 313.726 322.294 316.855 320.337 318.861C320.293 318.905 320.248 318.95 320.203 318.995C318.25 320.941 315.906 323.703 313.541 326.734C311.091 329.831 309.066 334.265 307.119 338.151C305.089 342.009 303.054 347.913 302.282 350.705C301.484 353.478 301.317 354.181 301.142 356.977C301.053 358.578 300.805 360.758 300.476 362.611C300.321 363.549 300.082 363.349 299.974 362.393C299.828 360.964 300.013 359.825 299.778 359.106C299.321 357.631 299.164 356.94 299.726 355.178C300.3 353.427 299.715 352.426 299.991 351.404C300.316 350.351 300.585 350.462 301.661 345.111C302.842 339.772 304.037 336.976 304.808 335.047C305.583 333.102 307.936 329.43 309.724 326.55C311.376 323.643 315.806 318.603 317.826 316.512C317.869 316.465 317.91 316.419 317.95 316.374C319.837 314.3 320.198 314.672 322.081 313.472Z" fill="#E8891F"/>
<path d="M330.065 323.177C331.595 322.232 332.126 320.601 334.067 319.496C336.011 318.431 336.541 318.714 338.688 317.44C340.854 316.176 343.311 315.566 344.266 314.981C345.234 314.392 345.566 314.955 346.997 314.335C348.458 313.722 349.391 313.555 350.778 313.431C352.146 313.272 356.29 312.718 357.774 312.347C359.266 311.924 361.058 312.287 362.08 312.398C362.43 312.431 362.655 312.482 362.864 312.536C362.922 312.558 362.989 312.604 362.968 312.644C362.968 312.644 362.968 312.644 362.968 312.644C362.984 312.697 362.909 312.744 362.812 312.747C362.296 312.762 361.535 312.847 360.643 313.073C358.985 313.513 358.773 313.128 356.555 313.581C354.319 314.075 353.095 314.659 350.469 315.074C347.836 315.553 347.55 316.602 343.913 317.429C340.258 318.388 340.318 319.493 337.243 321.427C334.165 323.381 330.236 325.884 328.67 327.489C328.635 327.524 328.599 327.56 328.563 327.596C327 329.153 325.125 331.362 323.233 333.787C321.273 336.265 319.653 339.812 318.096 342.921C316.471 346.007 314.844 350.73 314.225 352.964C313.587 355.182 313.454 355.744 313.313 357.981C313.243 359.263 313.044 361.006 312.781 362.489C312.657 363.239 312.466 363.079 312.379 362.315C312.262 361.171 312.411 360.26 312.223 359.685C311.857 358.505 311.731 357.952 312.181 356.542C312.64 355.142 312.172 354.34 312.393 353.523C312.653 352.681 312.868 352.77 313.729 348.489C314.674 344.217 315.63 341.981 316.247 340.438C316.867 338.881 318.749 335.944 320.179 333.64C321.501 331.314 325.045 327.282 326.661 325.609C326.695 325.572 326.728 325.535 326.76 325.5C328.269 323.84 328.558 324.137 330.065 323.177Z" fill="#E8891F"/>
<path d="M336.451 330.942C337.676 330.186 338.101 328.881 339.653 327.998C341.208 327.145 341.632 327.372 343.35 326.352C345.083 325.341 347.049 324.853 347.812 324.385C348.587 323.914 348.853 324.364 349.997 323.869C351.166 323.378 351.913 323.244 353.022 323.145C354.116 323.018 357.432 322.575 358.619 322.278C359.813 321.939 361.246 322.23 362.063 322.319C362.344 322.345 362.524 322.386 362.691 322.429C362.738 322.447 362.791 322.483 362.774 322.516C362.774 322.516 362.774 322.516 362.774 322.516C362.787 322.558 362.727 322.595 362.649 322.598C362.236 322.61 361.628 322.678 360.914 322.859C359.588 323.211 359.418 322.903 357.644 323.265C355.855 323.661 354.876 324.128 352.775 324.46C350.669 324.843 350.44 325.682 347.53 326.343C344.606 327.111 344.654 327.995 342.194 329.542C339.732 331.105 336.588 333.107 335.336 334.392C335.307 334.42 335.279 334.448 335.25 334.477C334 335.723 332.5 337.49 330.986 339.43C329.418 341.412 328.122 344.25 326.876 346.737C325.577 349.206 324.275 352.984 323.78 354.771C323.27 356.546 323.163 356.996 323.051 358.786C322.994 359.81 322.835 361.205 322.624 362.392C322.525 362.992 322.372 362.864 322.303 362.252C322.21 361.337 322.328 360.609 322.178 360.148C321.885 359.204 321.785 358.762 322.145 357.634C322.512 356.514 322.138 355.873 322.314 355.219C322.522 354.545 322.694 354.616 323.383 351.191C324.139 347.774 324.904 345.985 325.397 344.751C325.893 343.505 327.399 341.155 328.543 339.312C329.601 337.452 332.436 334.226 333.729 332.888C333.756 332.858 333.782 332.829 333.808 332.8C335.015 331.473 335.246 331.71 336.451 330.942Z" fill="#E8891F"/>
<path d="M341.961 337.554C342.941 336.948 343.281 335.905 344.523 335.198C345.767 334.516 346.106 334.697 347.48 333.882C348.866 333.073 350.439 332.682 351.05 332.308C351.67 331.931 351.882 332.291 352.798 331.895C353.733 331.502 354.33 331.395 355.218 331.316C356.093 331.215 358.746 330.86 359.695 330.622C360.65 330.351 361.797 330.584 362.451 330.655C362.675 330.676 362.819 330.708 362.953 330.743C362.99 330.757 363.033 330.787 363.019 330.812C363.019 330.812 363.019 330.812 363.019 330.813C363.029 330.846 362.981 330.876 362.919 330.878C362.589 330.888 362.102 330.942 361.531 331.087C360.47 331.369 360.334 331.122 358.915 331.412C357.484 331.728 356.701 332.102 355.02 332.368C353.335 332.674 353.152 333.346 350.824 333.874C348.485 334.488 348.524 335.196 346.555 336.433C344.585 337.684 342.071 339.286 341.069 340.313C341.046 340.336 341.023 340.358 341 340.381C340 341.378 338.8 342.792 337.589 344.344C336.334 345.93 335.298 348.2 334.301 350.189C333.262 352.165 332.22 355.187 331.824 356.617C331.416 358.037 331.33 358.397 331.24 359.828C331.195 360.648 331.068 361.764 330.899 362.713C330.82 363.193 330.698 363.091 330.643 362.602C330.568 361.87 330.663 361.287 330.542 360.918C330.308 360.163 330.228 359.81 330.516 358.907C330.81 358.011 330.51 357.498 330.651 356.975C330.818 356.436 330.955 356.493 331.506 353.753C332.111 351.019 332.723 349.588 333.118 348.6C333.515 347.604 334.719 345.724 335.634 344.25C336.481 342.761 338.749 340.181 339.783 339.11C339.805 339.086 339.826 339.063 339.846 339.04C340.812 337.978 340.997 338.168 341.961 337.554Z" fill="#E8891F"/>
<path d="M346.369 342.843C347.152 342.359 347.424 341.524 348.418 340.958C349.413 340.413 349.685 340.558 350.784 339.905C351.893 339.259 353.151 338.946 353.64 338.646C354.136 338.345 354.306 338.633 355.038 338.316C355.786 338.002 356.264 337.916 356.974 337.853C357.674 337.772 359.796 337.488 360.556 337.298C361.32 337.081 362.237 337.267 362.761 337.324C362.94 337.341 363.055 337.367 363.162 337.395C363.192 337.406 363.226 337.429 363.215 337.45C363.215 337.45 363.215 337.45 363.215 337.45C363.223 337.477 363.185 337.501 363.136 337.503C362.871 337.51 362.482 337.554 362.025 337.67C361.176 337.895 361.067 337.698 359.932 337.93C358.787 338.183 358.16 338.482 356.816 338.694C355.468 338.939 355.322 339.477 353.459 339.9C351.588 340.391 351.619 340.957 350.044 341.947C348.468 342.947 346.456 344.229 345.655 345.051C345.637 345.069 345.618 345.087 345.6 345.105C344.8 345.903 343.84 347.034 342.871 348.275C341.868 349.544 341.038 351.36 340.241 352.952C339.409 354.532 338.576 356.95 338.259 358.094C337.933 359.23 337.864 359.517 337.792 360.663C337.756 361.319 337.654 362.212 337.519 362.971C337.456 363.355 337.358 363.273 337.314 362.881C337.254 362.296 337.33 361.83 337.234 361.535C337.046 360.931 336.982 360.648 337.213 359.926C337.448 359.209 337.208 358.799 337.321 358.38C337.454 357.949 337.564 357.994 338.005 355.803C338.489 353.616 338.978 352.471 339.294 351.681C339.612 350.884 340.575 349.379 341.307 348.2C341.984 347.009 343.799 344.945 344.626 344.088C344.644 344.069 344.661 344.05 344.677 344.032C345.45 343.182 345.598 343.335 346.369 342.843Z" fill="#260B2C"/>
<path d="M346.369 342.843C347.152 342.359 347.424 341.524 348.418 340.958C349.413 340.413 349.685 340.558 350.784 339.905C351.893 339.259 353.151 338.946 353.64 338.646C354.136 338.345 354.306 338.633 355.038 338.316C355.786 338.002 356.264 337.916 356.974 337.853C357.674 337.772 359.796 337.488 360.556 337.298C361.32 337.081 362.237 337.267 362.761 337.324C362.94 337.341 363.055 337.367 363.162 337.395C363.192 337.406 363.226 337.429 363.215 337.45C363.215 337.45 363.215 337.45 363.215 337.45C363.223 337.477 363.185 337.501 363.136 337.503C362.871 337.51 362.482 337.554 362.025 337.67C361.176 337.895 361.067 337.698 359.932 337.93C358.787 338.183 358.16 338.482 356.816 338.694C355.468 338.939 355.322 339.477 353.459 339.9C351.588 340.391 351.619 340.957 350.044 341.947C348.468 342.947 346.456 344.229 345.655 345.051C345.637 345.069 345.618 345.087 345.6 345.105C344.8 345.903 343.84 347.034 342.871 348.275C341.868 349.544 341.038 351.36 340.241 352.952C339.409 354.532 338.576 356.95 338.259 358.094C337.933 359.23 337.864 359.517 337.792 360.663C337.756 361.319 337.654 362.212 337.519 362.971C337.456 363.355 337.358 363.273 337.314 362.881C337.254 362.296 337.33 361.83 337.234 361.535C337.046 360.931 336.982 360.648 337.213 359.926C337.448 359.209 337.208 358.799 337.321 358.38C337.454 357.949 337.564 357.994 338.005 355.803C338.489 353.616 338.978 352.471 339.294 351.681C339.612 350.884 340.575 349.379 341.307 348.2C341.984 347.009 343.799 344.945 344.626 344.088C344.644 344.069 344.661 344.05 344.677 344.032C345.45 343.182 345.598 343.335 346.369 342.843Z" fill="#E8891F"/>
<path d="M349.495 346.675C350.122 346.288 350.34 345.619 351.135 345.167C351.931 344.731 352.148 344.847 353.028 344.325C353.915 343.807 354.921 343.557 355.312 343.317C355.709 343.076 355.845 343.307 356.431 343.053C357.029 342.802 357.412 342.733 357.979 342.683C358.54 342.618 360.237 342.391 360.845 342.239C361.456 342.065 362.19 342.214 362.609 342.26C362.752 342.273 362.844 342.294 362.93 342.316C362.954 342.325 362.981 342.344 362.972 342.361C362.972 342.361 362.972 342.361 362.972 342.361C362.979 342.382 362.948 342.401 362.909 342.403C362.697 342.409 362.386 342.444 362.02 342.536C361.341 342.716 361.254 342.559 360.346 342.744C359.43 342.947 358.929 343.186 357.853 343.356C356.774 343.552 356.657 343.982 355.168 344.32C353.671 344.713 353.695 345.166 352.435 345.958C351.175 346.758 349.565 347.783 348.924 348.441C348.91 348.455 348.895 348.47 348.88 348.485C348.24 349.122 347.472 350.027 346.697 351.021C345.894 352.035 345.231 353.488 344.593 354.762C343.928 356.026 343.261 357.96 343.008 358.875C342.746 359.784 342.692 360.014 342.634 360.931C342.605 361.455 342.524 362.17 342.416 362.777C342.365 363.084 342.287 363.019 342.251 362.706C342.204 362.237 342.264 361.864 342.187 361.628C342.037 361.145 341.986 360.919 342.17 360.341C342.358 359.767 342.167 359.439 342.257 359.105C342.364 358.76 342.451 358.796 342.804 357.042C343.191 355.293 343.583 354.377 343.836 353.745C344.089 353.107 344.86 351.904 345.446 350.96C345.988 350.008 347.439 348.356 348.101 347.671C348.115 347.656 348.129 347.641 348.142 347.626C348.76 346.946 348.878 347.068 349.495 346.675Z" fill="#E8891F"/>
<path d="M352.196 349.939C352.698 349.629 352.872 349.095 353.508 348.733C354.145 348.384 354.318 348.477 355.022 348.059C355.732 347.645 356.537 347.445 356.85 347.253C357.167 347.061 357.276 347.245 357.745 347.042C358.223 346.841 358.529 346.786 358.983 346.746C359.432 346.694 360.79 346.512 361.276 346.39C361.765 346.252 362.352 346.371 362.687 346.407C362.802 346.418 362.875 346.434 362.944 346.452C362.963 346.46 362.985 346.475 362.978 346.488C362.978 346.488 362.978 346.488 362.978 346.488C362.983 346.505 362.959 346.52 362.927 346.522C362.758 346.526 362.508 346.554 362.216 346.628C361.673 346.773 361.603 346.646 360.877 346.795C360.144 346.957 359.743 347.148 358.882 347.284C358.019 347.441 357.926 347.785 356.734 348.056C355.536 348.37 355.556 348.732 354.548 349.366C353.54 350.006 352.252 350.826 351.739 351.352C351.728 351.364 351.716 351.375 351.704 351.387C351.192 351.897 350.578 352.621 349.957 353.416C349.315 354.228 348.785 355.39 348.274 356.409C347.742 357.42 347.209 358.968 347.006 359.7C346.797 360.427 346.753 360.611 346.707 361.344C346.684 361.764 346.619 362.335 346.533 362.821C346.492 363.067 346.429 363.014 346.401 362.764C346.363 362.389 346.411 362.091 346.35 361.902C346.23 361.515 346.189 361.334 346.336 360.872C346.487 360.413 346.333 360.151 346.406 359.883C346.491 359.607 346.561 359.636 346.843 358.233C347.153 356.834 347.466 356.101 347.668 355.595C347.871 355.085 348.488 354.123 348.957 353.368C349.39 352.606 350.551 351.284 351.081 350.736C351.092 350.724 351.103 350.712 351.113 350.7C351.608 350.157 351.703 350.254 352.196 349.939Z" fill="#E8891F"/>
<path d="M346.369 342.843C347.152 342.359 347.424 341.524 348.418 340.958C349.413 340.413 349.685 340.558 350.784 339.905C351.893 339.259 353.151 338.946 353.64 338.646C354.136 338.345 354.306 338.633 355.038 338.316C355.786 338.002 356.264 337.916 356.974 337.853C357.674 337.772 359.796 337.488 360.556 337.298C361.32 337.081 362.237 337.267 362.761 337.324C362.94 337.341 363.055 337.367 363.162 337.395C363.192 337.406 363.226 337.429 363.215 337.45C363.215 337.45 363.215 337.45 363.215 337.45C363.223 337.477 363.185 337.501 363.136 337.503C362.871 337.51 362.482 337.554 362.025 337.67C361.176 337.895 361.067 337.698 359.932 337.93C358.787 338.183 358.16 338.482 356.816 338.694C355.468 338.939 355.322 339.477 353.459 339.9C351.588 340.391 351.619 340.957 350.044 341.947C348.468 342.947 346.456 344.229 345.655 345.051C345.637 345.069 345.618 345.087 345.6 345.105C344.8 345.903 343.84 347.034 342.871 348.275C341.868 349.544 341.038 351.36 340.241 352.952C339.409 354.532 338.576 356.95 338.259 358.094C337.933 359.23 337.864 359.517 337.792 360.663C337.756 361.319 337.654 362.212 337.519 362.971C337.456 363.355 337.358 363.273 337.314 362.881C337.254 362.296 337.33 361.83 337.234 361.535C337.046 360.931 336.982 360.648 337.213 359.926C337.448 359.209 337.208 358.799 337.321 358.38C337.454 357.949 337.564 357.994 338.005 355.803C338.489 353.616 338.978 352.471 339.294 351.681C339.612 350.884 340.575 349.379 341.307 348.2C341.984 347.009 343.799 344.945 344.626 344.088C344.644 344.069 344.661 344.05 344.677 344.032C345.45 343.182 345.598 343.335 346.369 342.843Z" fill="#260B2C"/>
<path d="M311.339 300.46C313.854 299.106 314.25 295.921 317.398 294.25C320.543 292.645 321.577 293.44 324.924 291.349C328.309 289.271 332.293 288.559 333.738 287.484C335.212 286.401 335.902 287.756 338.116 286.678C340.383 285.606 341.878 285.404 344.095 285.367C346.289 285.275 352.796 284.546 355.104 283.764C357.432 282.9 360.276 283.817 361.874 284.074C362.423 284.152 362.776 284.266 363.103 284.388C363.158 284.414 363.198 284.452 363.245 284.497C363.274 284.541 363.263 284.589 363.262 284.638C363.262 284.638 363.262 284.638 363.262 284.638C363.284 284.76 363.166 284.873 363.015 284.883C362.211 284.932 361.024 285.13 359.643 285.628C357.085 286.587 356.733 285.685 353.299 286.53C349.841 287.439 348.011 288.62 343.901 289.085C339.76 289.653 339.567 292.007 333.798 292.871C327.965 293.956 328.389 296.405 323.733 299.462C319.077 302.546 312.759 306.037 310.359 308.549C310.305 308.604 310.25 308.659 310.195 308.715C307.813 311.143 305.003 314.592 302.005 318.262C298.894 322.025 296.639 327.614 294.064 332.326C291.383 337.008 288.626 344.268 287.507 347.714C286.359 351.133 286.114 352.013 285.992 355.506C285.938 357.507 285.576 360.206 284.961 362.515C284.664 363.682 284.223 363.443 284.02 362.24C283.738 360.443 284.036 359.019 283.565 358.103C282.638 356.223 282.307 355.325 283.219 353.131C284.144 350.957 282.948 349.622 283.35 348.339C283.813 347.017 284.417 347.221 285.569 340.425C286.857 333.631 288.323 330.06 289.254 327.598C290.193 325.107 293.378 320.57 295.568 316.881C297.595 313.15 303.265 306.806 305.74 304.062C305.792 304.001 305.843 303.941 305.891 303.882C308.19 301.15 308.854 301.842 311.339 300.46Z" fill="#E8891F"/>
<path d="M321.669 312.965C323.681 311.882 323.996 309.332 326.515 307.995C329.032 306.711 329.86 307.349 332.537 305.676C335.245 304.013 338.433 303.444 339.589 302.584C340.768 301.716 341.321 302.803 343.092 301.939C344.905 301.081 346.101 300.92 347.875 300.891C349.631 300.819 354.837 300.236 356.683 299.609C358.545 298.917 360.821 299.652 362.099 299.858C362.539 299.921 362.821 300.012 363.082 300.11C363.126 300.131 363.158 300.161 363.196 300.197C363.219 300.232 363.21 300.271 363.209 300.31C363.209 300.31 363.209 300.31 363.209 300.31C363.227 300.408 363.133 300.499 363.012 300.507C362.369 300.546 361.419 300.704 360.314 301.104C358.268 301.872 357.986 301.15 355.24 301.826C352.473 302.554 351.01 303.5 347.722 303.87C344.409 304.324 344.255 306.211 339.64 306.9C334.973 307.766 335.314 309.729 331.589 312.174C327.865 314.642 322.81 317.433 320.89 319.442C320.847 319.486 320.803 319.531 320.759 319.575C318.854 321.518 316.606 324.277 314.208 327.212C311.719 330.222 309.916 334.693 307.855 338.462C305.71 342.208 303.503 348.015 302.608 350.771C301.688 353.506 301.493 354.21 301.395 357.004C301.352 358.605 301.062 360.765 300.569 362.612C300.332 363.545 299.978 363.354 299.815 362.392C299.589 360.954 299.828 359.815 299.45 359.082C298.707 357.578 298.442 356.86 299.172 355.104C299.913 353.365 298.954 352.296 299.276 351.27C299.647 350.212 300.131 350.376 301.052 344.939C302.081 339.503 303.254 336.646 303.999 334.676C304.75 332.683 307.298 329.054 309.051 326.102C310.672 323.117 315.209 318.042 317.189 315.846C317.23 315.797 317.27 315.749 317.309 315.702C319.148 313.515 319.68 314.07 321.669 312.965Z" fill="#E8891F"/>
<path d="M329.735 322.772C331.345 321.906 331.597 319.865 333.612 318.796C335.626 317.769 336.288 318.279 338.43 316.941C340.596 315.61 343.147 315.156 344.071 314.467C345.015 313.773 345.457 314.642 346.874 313.951C348.324 313.265 349.281 313.136 350.7 313.113C352.105 313.055 356.27 312.589 357.746 312.088C359.236 311.534 361.057 312.122 362.079 312.287C362.431 312.337 362.657 312.41 362.866 312.488C362.924 312.52 362.99 312.587 362.968 312.648C362.968 312.648 362.968 312.648 362.968 312.648C362.982 312.727 362.907 312.799 362.81 312.806C362.295 312.837 361.535 312.964 360.652 313.283C359.015 313.898 358.789 313.32 356.592 313.861C354.378 314.443 353.208 315.2 350.578 315.496C347.927 315.859 347.804 317.369 344.112 317.92C340.378 318.613 340.651 320.183 337.672 322.139C334.692 324.113 330.648 326.346 329.112 327.954C329.078 327.989 329.043 328.024 329.008 328.06C327.484 329.614 325.685 331.822 323.767 334.17C321.775 336.577 320.333 340.155 318.684 343.17C316.968 346.166 315.203 350.812 314.486 353.017C313.751 355.205 313.594 355.768 313.516 358.004C313.482 359.284 313.25 361.012 312.855 362.489C312.665 363.236 312.383 363.083 312.252 362.314C312.071 361.163 312.262 360.252 311.96 359.666C311.366 358.462 311.153 357.888 311.738 356.483C312.331 355.092 311.563 354.237 311.821 353.416C312.117 352.57 312.505 352.701 313.242 348.351C314.065 344.002 315.003 341.717 315.599 340.141C316.2 338.546 318.239 335.643 319.641 333.282C320.938 330.893 324.567 326.833 326.151 325.077C326.184 325.037 326.216 324.999 326.247 324.961C327.719 323.212 328.144 323.656 329.735 322.772Z" fill="#E8891F"/>
<path d="M336.19 330.621C337.478 329.927 337.681 328.298 339.293 327.442C340.903 326.62 341.432 327.027 343.146 325.956C344.879 324.893 346.918 324.528 347.658 323.978C348.413 323.423 348.766 324.116 349.9 323.564C351.06 323.016 351.826 322.912 352.961 322.893C354.084 322.846 357.416 322.472 358.597 322.072C359.789 321.63 361.245 322.099 362.063 322.231C362.345 322.27 362.525 322.329 362.693 322.391C362.739 322.417 362.792 322.47 362.774 322.519C362.774 322.519 362.774 322.519 362.774 322.519C362.785 322.581 362.725 322.639 362.648 322.644C362.236 322.669 361.628 322.77 360.921 323.025C359.611 323.516 359.431 323.055 357.673 323.487C355.902 323.952 354.965 324.556 352.861 324.794C350.741 325.086 350.641 326.29 347.688 326.733C344.702 327.289 344.918 328.542 342.534 330.107C340.15 331.686 336.915 333.474 335.686 334.76C335.659 334.788 335.631 334.817 335.603 334.845C334.383 336.089 332.944 337.854 331.409 339.734C329.817 341.66 328.661 344.522 327.343 346.935C325.971 349.332 324.559 353.049 323.987 354.814C323.399 356.564 323.274 357.015 323.211 358.803C323.183 359.828 322.998 361.21 322.684 362.392C322.532 362.99 322.306 362.867 322.202 362.251C322.058 361.331 322.211 360.602 321.97 360.133C321.496 359.17 321.327 358.711 321.793 357.587C322.266 356.474 321.655 355.791 321.86 355.134C322.097 354.457 322.406 354.562 322.997 351.082C323.656 347.604 324.407 345.776 324.884 344.515C325.364 343.24 326.995 340.917 328.116 339.028C329.154 337.118 332.057 333.87 333.324 332.466C333.351 332.434 333.377 332.403 333.401 332.373C334.579 330.975 334.918 331.329 336.19 330.621Z" fill="#E8891F"/>
<path d="M341.75 337.293C342.78 336.739 342.94 335.432 344.23 334.747C345.519 334.09 345.943 334.417 347.314 333.561C348.701 332.709 350.333 332.419 350.925 331.978C351.529 331.533 351.812 332.09 352.719 331.648C353.647 331.208 354.26 331.126 355.168 331.112C356.067 331.075 358.732 330.777 359.678 330.455C360.631 330.101 361.796 330.478 362.451 330.583C362.676 330.615 362.82 330.662 362.954 330.712C362.991 330.733 363.033 330.776 363.019 330.815C363.019 330.815 363.019 330.815 363.019 330.815C363.028 330.865 362.98 330.912 362.918 330.916C362.589 330.936 362.103 331.017 361.537 331.222C360.489 331.616 360.345 331.245 358.939 331.592C357.522 331.965 356.773 332.449 355.09 332.639C353.393 332.871 353.315 333.838 350.952 334.19C348.562 334.633 348.737 335.639 346.831 336.891C344.924 338.155 342.336 339.583 341.353 340.612C341.331 340.634 341.308 340.657 341.286 340.68C340.311 341.674 339.16 343.087 337.932 344.59C336.657 346.13 335.735 348.42 334.679 350.349C333.581 352.267 332.45 355.24 331.992 356.651C331.521 358.051 331.42 358.412 331.371 359.842C331.349 360.662 331.2 361.768 330.947 362.713C330.826 363.191 330.644 363.094 330.561 362.601C330.445 361.865 330.567 361.281 330.374 360.906C329.993 360.136 329.857 359.768 330.231 358.869C330.611 357.979 330.119 357.432 330.284 356.906C330.474 356.365 330.722 356.449 331.193 353.664C331.72 350.881 332.32 349.418 332.702 348.409C333.086 347.389 334.391 345.531 335.289 344.02C336.118 342.491 338.442 339.892 339.455 338.768C339.476 338.743 339.497 338.718 339.517 338.694C340.458 337.574 340.731 337.859 341.75 337.293Z" fill="#E8891F"/>
<path d="M346.2 342.636C347.025 342.192 347.154 341.148 348.185 340.6C349.216 340.074 349.555 340.335 350.652 339.65C351.761 338.969 353.067 338.736 353.54 338.383C354.023 338.028 354.25 338.473 354.975 338.119C355.718 337.768 356.208 337.702 356.934 337.69C357.653 337.66 359.786 337.422 360.542 337.165C361.305 336.882 362.237 337.183 362.76 337.267C362.941 337.293 363.056 337.33 363.163 337.37C363.193 337.387 363.227 337.421 363.215 337.452C363.215 337.452 363.215 337.452 363.215 337.452C363.223 337.492 363.184 337.529 363.135 337.533C362.871 337.549 362.482 337.614 362.029 337.777C361.191 338.092 361.076 337.796 359.951 338.073C358.818 338.371 358.218 338.758 356.872 338.91C355.514 339.096 355.452 339.869 353.561 340.151C351.649 340.506 351.789 341.31 350.264 342.311C348.738 343.322 346.667 344.465 345.881 345.288C345.863 345.306 345.846 345.325 345.828 345.343C345.047 346.139 344.126 347.269 343.144 348.471C342.125 349.704 341.386 351.535 340.542 353.079C339.663 354.613 338.759 356.992 338.393 358.121C338.016 359.241 337.936 359.53 337.896 360.674C337.878 361.33 337.76 362.214 337.558 362.971C337.461 363.353 337.316 363.275 337.249 362.881C337.156 362.292 337.254 361.825 337.099 361.525C336.795 360.909 336.687 360.615 336.986 359.896C337.289 359.183 336.896 358.746 337.028 358.325C337.18 357.892 337.378 357.959 337.756 355.732C338.177 353.506 338.658 352.335 338.963 351.528C339.27 350.712 340.314 349.226 341.032 348.017C341.696 346.794 343.554 344.715 344.365 343.816C344.382 343.796 344.399 343.776 344.415 343.757C345.168 342.861 345.386 343.088 346.2 342.636Z" fill="#E8891F"/>
<path d="M349.373 346.524C350.029 346.167 350.143 345.346 350.966 344.907C351.788 344.485 352.054 344.685 352.932 344.139C353.819 343.597 354.86 343.405 355.24 343.127C355.627 342.846 355.804 343.191 356.385 342.911C356.98 342.632 357.371 342.578 357.951 342.565C358.524 342.537 360.23 342.343 360.835 342.142C361.445 341.921 362.19 342.153 362.609 342.218C362.753 342.238 362.845 342.267 362.931 342.298C362.954 342.311 362.981 342.338 362.972 342.362C362.972 342.362 362.972 342.362 362.972 342.362C362.978 342.393 362.947 342.422 362.908 342.424C362.697 342.436 362.386 342.487 362.023 342.614C361.352 342.859 361.26 342.63 360.36 342.848C359.452 343.083 358.97 343.387 357.893 343.513C356.808 343.666 356.752 344.266 355.242 344.503C353.715 344.797 353.819 345.422 352.595 346.222C351.371 347.03 349.718 347.955 349.088 348.614C349.074 348.628 349.06 348.642 349.045 348.657C348.42 349.294 347.68 350.198 346.895 351.163C346.081 352.152 345.483 353.616 344.812 354.854C344.112 356.085 343.394 357.991 343.104 358.895C342.807 359.793 342.744 360.023 342.709 360.939C342.694 361.463 342.6 362.172 342.444 362.777C342.368 363.083 342.256 363.02 342.204 362.705C342.133 362.234 342.209 361.861 342.09 361.621C341.855 361.129 341.771 360.895 342.006 360.319C342.243 359.749 341.94 359.401 342.044 359.065C342.165 358.718 342.317 358.77 342.623 356.991C342.965 355.213 343.35 354.279 343.595 353.634C343.842 352.983 344.671 351.792 345.246 350.827C345.778 349.851 347.262 348.19 347.912 347.473C347.925 347.457 347.939 347.441 347.951 347.426C348.556 346.713 348.725 346.889 349.373 346.524Z" fill="#E8891F"/>
<path d="M352.089 349.807C352.616 349.523 352.699 348.855 353.359 348.504C354.019 348.168 354.236 348.335 354.938 347.896C355.647 347.46 356.483 347.311 356.786 347.086C357.095 346.858 357.24 347.143 357.704 346.916C358.18 346.692 358.493 346.649 358.958 346.642C359.418 346.623 360.783 346.47 361.267 346.306C361.755 346.124 362.352 346.317 362.687 346.371C362.802 346.387 362.876 346.411 362.945 346.437C362.963 346.447 362.985 346.469 362.978 346.489C362.978 346.489 362.978 346.489 362.978 346.489C362.982 346.515 362.958 346.538 362.926 346.541C362.757 346.551 362.509 346.592 362.219 346.697C361.682 346.898 361.609 346.709 360.889 346.886C360.163 347.077 359.78 347.325 358.918 347.422C358.049 347.541 358.009 348.035 356.799 348.216C355.576 348.443 355.665 348.957 354.688 349.599C353.712 350.245 352.387 350.977 351.884 351.504C351.872 351.516 351.861 351.527 351.849 351.539C351.35 352.048 350.761 352.771 350.132 353.541C349.48 354.33 349.007 355.502 348.467 356.49C347.904 357.472 347.326 358.994 347.091 359.717C346.85 360.434 346.799 360.619 346.773 361.351C346.762 361.771 346.686 362.337 346.557 362.821C346.495 363.066 346.402 363.016 346.359 362.763C346.3 362.387 346.363 362.088 346.264 361.896C346.069 361.501 346 361.313 346.191 360.853C346.385 360.397 346.134 360.117 346.218 359.848C346.316 359.571 346.442 359.614 346.684 358.188C346.954 356.763 347.261 356.015 347.457 355.498C347.654 354.976 348.322 354.024 348.781 353.251C349.206 352.468 350.395 351.138 350.914 350.562C350.925 350.549 350.936 350.537 350.946 350.524C351.428 349.951 351.567 350.097 352.089 349.807Z" fill="#E8891F"/>
<path d="M355.282 353.705C355.647 353.509 355.704 353.047 356.16 352.805C356.616 352.572 356.766 352.687 357.251 352.384C357.742 352.083 358.32 351.98 358.529 351.824C358.743 351.667 358.843 351.864 359.164 351.707C359.492 351.552 359.709 351.523 360.03 351.517C360.348 351.504 361.292 351.398 361.626 351.285C361.964 351.16 362.376 351.293 362.608 351.33C362.687 351.341 362.738 351.358 362.786 351.376C362.799 351.383 362.814 351.398 362.809 351.412C362.809 351.412 362.809 351.412 362.809 351.412C362.812 351.43 362.795 351.446 362.773 351.447C362.656 351.454 362.484 351.483 362.284 351.555C361.913 351.694 361.862 351.564 361.365 351.686C360.863 351.818 360.598 351.989 360.002 352.056C359.402 352.139 359.374 352.48 358.538 352.605C357.692 352.763 357.754 353.118 357.079 353.561C356.404 354.008 355.488 354.514 355.14 354.878C355.132 354.886 355.125 354.894 355.117 354.902C354.771 355.254 354.364 355.754 353.929 356.286C353.479 356.831 353.152 357.641 352.778 358.324C352.39 359.003 351.99 360.055 351.828 360.555C351.661 361.051 351.626 361.178 351.608 361.684C351.6 361.974 351.548 362.366 351.459 362.7C351.416 362.87 351.352 362.835 351.322 362.661C351.281 362.4 351.324 362.194 351.256 362.061C351.122 361.788 351.074 361.658 351.206 361.34C351.34 361.025 351.167 360.831 351.225 360.645C351.292 360.454 351.38 360.484 351.547 359.498C351.733 358.513 351.946 357.996 352.081 357.639C352.217 357.278 352.678 356.62 352.996 356.085C353.29 355.545 354.112 354.625 354.47 354.227C354.478 354.218 354.485 354.21 354.492 354.201C354.826 353.805 354.922 353.905 355.282 353.705Z" fill="#E8891F"/>
<path d="M414.923 425.803C412.409 427.157 412.013 430.341 408.865 432.013C405.719 433.618 404.686 432.823 401.339 434.913C397.954 436.991 393.969 437.703 392.525 438.778C391.05 439.862 390.361 438.506 388.146 439.585C385.88 440.657 384.385 440.859 382.168 440.896C379.974 440.987 373.466 441.716 371.159 442.498C368.83 443.363 365.986 442.446 364.389 442.188C363.839 442.111 363.487 441.997 363.16 441.874C363.104 441.849 363.065 441.811 363.018 441.766C362.989 441.722 363 441.673 363.001 441.625C363.001 441.625 363.001 441.625 363.001 441.625C362.979 441.502 363.096 441.39 363.247 441.379C364.051 441.331 365.238 441.133 366.62 440.634C369.178 439.675 369.53 440.577 372.963 439.733C376.422 438.823 378.252 437.642 382.361 437.178C386.502 436.61 386.696 434.255 392.464 433.391C398.298 432.307 397.874 429.858 402.53 426.801C407.186 423.717 413.504 420.226 415.904 417.714C415.958 417.659 416.012 417.603 416.067 417.547C418.449 415.119 421.26 411.67 424.257 408C427.368 404.238 429.624 398.649 432.198 393.937C434.879 389.254 437.637 381.995 438.755 378.549C439.904 375.13 440.148 374.25 440.27 370.757C440.325 368.756 440.687 366.056 441.302 363.748C441.598 362.581 442.039 362.82 442.243 364.022C442.525 365.82 442.226 367.244 442.698 368.16C443.625 370.04 443.955 370.937 443.043 373.132C442.118 375.306 443.314 376.641 442.913 377.924C442.45 379.246 441.846 379.041 440.693 385.838C439.406 392.632 437.939 396.203 437.008 398.665C436.07 401.156 432.885 405.693 430.694 409.381C428.668 413.113 422.997 419.456 420.522 422.2C420.47 422.262 420.42 422.322 420.372 422.38C418.072 425.113 417.409 424.42 414.923 425.803Z" fill="#E8891F"/>
<path d="M404.594 413.298C402.581 414.38 402.267 416.931 399.747 418.268C397.23 419.552 396.403 418.914 393.725 420.587C391.017 422.25 387.829 422.818 386.674 423.679C385.494 424.547 384.942 423.46 383.17 424.324C381.357 425.182 380.161 425.343 378.387 425.372C376.632 425.444 371.425 426.027 369.58 426.653C367.717 427.346 365.441 426.611 364.163 426.404C363.724 426.342 363.442 426.251 363.18 426.153C363.136 426.132 363.104 426.102 363.067 426.066C363.043 426.03 363.052 425.992 363.053 425.953C363.053 425.953 363.053 425.953 363.053 425.952C363.035 425.854 363.129 425.764 363.25 425.756C363.893 425.717 364.843 425.558 365.948 425.159C367.994 424.39 368.276 425.113 371.023 424.437C373.79 423.709 375.253 422.763 378.54 422.392C381.854 421.938 382.007 420.052 386.622 419.362C391.29 418.497 390.949 416.534 394.673 414.088C398.397 411.621 403.453 408.83 405.372 406.82C405.416 406.777 405.459 406.732 405.503 406.687C407.408 404.745 409.656 401.986 412.054 399.05C414.543 396.041 416.347 391.569 418.407 387.8C420.552 384.055 422.759 378.248 423.655 375.492C424.574 372.756 424.77 372.053 424.867 369.258C424.911 367.657 425.2 365.498 425.693 363.651C425.931 362.717 426.284 362.908 426.447 363.871C426.674 365.309 426.435 366.448 426.813 367.181C427.556 368.685 427.821 369.403 427.09 371.159C426.349 372.898 427.308 373.966 426.987 374.993C426.616 376.05 426.132 375.886 425.211 381.324C424.181 386.76 423.008 389.617 422.264 391.587C421.513 393.58 418.964 397.209 417.212 400.16C415.591 403.146 411.054 408.221 409.074 410.417C409.032 410.466 408.992 410.514 408.953 410.561C407.114 412.748 406.582 412.192 404.594 413.298Z" fill="#E8891F"/>
<path d="M396.527 403.491C394.917 404.357 394.666 406.397 392.65 407.467C390.637 408.494 389.975 407.984 387.833 409.322C385.666 410.652 383.116 411.107 382.191 411.796C381.248 412.49 380.806 411.621 379.389 412.311C377.938 412.998 376.981 413.127 375.562 413.15C374.158 413.208 369.993 413.674 368.516 414.175C367.026 414.729 365.206 414.141 364.183 413.976C363.831 413.926 363.606 413.853 363.396 413.775C363.339 413.742 363.273 413.676 363.295 413.615C363.295 413.615 363.295 413.615 363.295 413.615C363.281 413.536 363.356 413.464 363.452 413.457C363.967 413.426 364.727 413.299 365.611 412.98C367.248 412.365 367.473 412.943 369.67 412.402C371.884 411.82 373.055 411.063 375.685 410.766C378.335 410.403 378.458 408.894 382.15 408.342C385.884 407.65 385.612 406.08 388.591 404.123C391.57 402.149 395.615 399.917 397.15 398.309C397.185 398.274 397.22 398.238 397.255 398.202C398.779 396.648 400.577 394.441 402.496 392.093C404.487 389.685 405.93 386.108 407.578 383.093C409.294 380.097 411.06 375.451 411.776 373.246C412.512 371.058 412.668 370.495 412.746 368.259C412.781 366.979 413.013 365.251 413.407 363.773C413.597 363.026 413.88 363.179 414.01 363.949C414.191 365.099 414 366.011 414.302 366.597C414.897 367.8 415.109 368.375 414.525 369.78C413.932 371.171 414.699 372.026 414.442 372.847C414.145 373.693 413.758 373.562 413.021 377.912C412.197 382.26 411.259 384.546 410.663 386.122C410.063 387.716 408.024 390.62 406.622 392.981C405.325 395.369 401.695 399.429 400.111 401.186C400.078 401.225 400.046 401.264 400.015 401.301C398.544 403.051 398.118 402.606 396.527 403.491Z" fill="#E8891F"/>
<path d="M390.072 395.642C388.785 396.335 388.581 397.965 386.97 398.821C385.359 399.643 384.831 399.236 383.117 400.306C381.384 401.37 379.344 401.735 378.604 402.285C377.849 402.84 377.496 402.146 376.363 402.699C375.202 403.247 374.437 403.351 373.302 403.37C372.179 403.417 368.847 403.79 367.665 404.19C366.473 404.633 365.017 404.164 364.199 404.032C363.918 403.992 363.737 403.934 363.57 403.872C363.524 403.846 363.471 403.793 363.489 403.744C363.489 403.744 363.489 403.744 363.489 403.744C363.477 403.681 363.537 403.624 363.615 403.618C364.026 403.594 364.634 403.492 365.341 403.237C366.651 402.747 366.831 403.208 368.589 402.776C370.36 402.31 371.297 401.706 373.401 401.468C375.522 401.177 375.621 399.973 378.574 399.53C381.561 398.974 381.344 397.721 383.728 396.156C386.113 394.577 389.347 392.789 390.576 391.503C390.604 391.474 390.632 391.446 390.66 391.417C391.879 390.174 393.319 388.408 394.853 386.529C396.446 384.603 397.601 381.741 398.919 379.328C400.291 376.931 401.703 373.213 402.275 371.449C402.863 369.698 402.988 369.248 403.051 367.46C403.079 366.435 403.264 365.053 403.579 363.871C403.73 363.273 403.956 363.396 404.06 364.011C404.204 364.932 404.052 365.661 404.293 366.13C404.767 367.092 404.936 367.552 404.469 368.675C403.996 369.789 404.608 370.472 404.402 371.129C404.165 371.806 403.856 371.701 403.266 375.18C402.606 378.659 401.856 380.487 401.379 381.748C400.898 383.023 399.268 385.346 398.146 387.234C397.109 389.145 394.206 392.392 392.938 393.797C392.912 393.829 392.886 393.859 392.861 393.889C391.684 395.288 391.344 394.934 390.072 395.642Z" fill="#E8891F"/>
<path d="M384.513 388.97C383.482 389.524 383.322 390.831 382.032 391.515C380.743 392.172 380.319 391.845 378.948 392.702C377.562 393.553 375.929 393.844 375.338 394.285C374.734 394.73 374.451 394.172 373.544 394.615C372.615 395.054 372.003 395.137 371.095 395.151C370.196 395.188 367.53 395.486 366.585 395.807C365.631 396.162 364.466 395.785 363.812 395.679C363.587 395.647 363.442 395.601 363.308 395.55C363.271 395.53 363.229 395.487 363.243 395.448C363.243 395.448 363.243 395.448 363.243 395.448C363.234 395.397 363.282 395.351 363.344 395.347C363.674 395.327 364.16 395.246 364.726 395.041C365.773 394.647 365.917 395.018 367.324 394.671C368.74 394.298 369.489 393.813 371.173 393.624C372.869 393.392 372.947 392.424 375.31 392.072C377.7 391.63 377.525 390.624 379.432 389.372C381.338 388.108 383.927 386.68 384.91 385.651C384.932 385.628 384.954 385.606 384.977 385.583C385.952 384.588 387.103 383.176 388.331 381.673C389.605 380.132 390.528 377.843 391.583 375.913C392.682 373.996 393.812 371.023 394.271 369.612C394.742 368.211 394.842 367.851 394.892 366.42C394.914 365.601 395.062 364.495 395.315 363.549C395.437 363.071 395.618 363.169 395.702 363.662C395.818 364.398 395.695 364.981 395.889 365.357C396.27 366.127 396.406 366.495 396.032 367.394C395.652 368.284 396.144 368.831 395.979 369.357C395.789 369.898 395.54 369.814 395.069 372.598C394.543 375.382 393.942 376.845 393.561 377.853C393.177 378.874 391.871 380.732 390.974 382.243C390.144 383.772 387.821 386.37 386.807 387.495C386.786 387.52 386.765 387.545 386.746 387.569C385.804 388.689 385.531 388.404 384.513 388.97Z" fill="#E8891F"/>
<path d="M380.062 383.627C379.238 384.07 379.109 385.115 378.077 385.663C377.046 386.189 376.707 385.927 375.61 386.613C374.501 387.294 373.195 387.527 372.722 387.879C372.239 388.235 372.013 387.79 371.287 388.143C370.545 388.495 370.055 388.561 369.328 388.573C368.609 388.602 366.477 388.841 365.72 389.098C364.958 389.381 364.025 389.08 363.502 388.996C363.322 388.97 363.206 388.933 363.099 388.893C363.07 388.876 363.036 388.842 363.047 388.811C363.047 388.811 363.047 388.811 363.047 388.811C363.04 388.77 363.078 388.733 363.128 388.73C363.391 388.714 363.78 388.649 364.233 388.486C365.071 388.171 365.187 388.467 366.312 388.19C367.445 387.892 368.044 387.504 369.391 387.352C370.748 387.167 370.811 386.394 372.701 386.111C374.613 385.757 374.473 384.953 375.999 383.951C377.524 382.941 379.595 381.797 380.381 380.974C380.399 380.956 380.417 380.938 380.435 380.92C381.215 380.124 382.136 378.994 383.118 377.792C384.138 376.559 384.876 374.727 385.72 373.184C386.599 371.649 387.503 369.271 387.87 368.142C388.246 367.021 388.326 366.733 388.366 365.589C388.384 364.933 388.503 364.048 388.705 363.292C388.802 362.909 388.947 362.988 389.014 363.382C389.106 363.971 389.008 364.438 389.163 364.738C389.467 365.354 389.576 365.648 389.277 366.367C388.973 367.079 389.366 367.517 389.234 367.937C389.082 368.371 388.884 368.303 388.507 370.531C388.085 372.757 387.605 373.927 387.3 374.734C386.992 375.551 385.948 377.037 385.23 378.246C384.566 379.469 382.708 381.548 381.897 382.447C381.88 382.467 381.864 382.487 381.848 382.506C381.094 383.402 380.877 383.174 380.062 383.627Z" fill="#E8891F"/>
<path d="M376.889 379.738C376.233 380.096 376.119 380.916 375.297 381.356C374.475 381.778 374.208 381.578 373.331 382.123C372.444 382.666 371.402 382.858 371.023 383.136C370.635 383.416 370.458 383.072 369.877 383.352C369.283 383.631 368.892 383.685 368.312 383.698C367.738 383.726 366.033 383.92 365.428 384.12C364.817 384.342 364.073 384.11 363.654 384.044C363.51 384.025 363.417 383.996 363.332 383.964C363.308 383.952 363.281 383.925 363.29 383.901C363.29 383.901 363.29 383.901 363.29 383.901C363.284 383.87 363.315 383.841 363.355 383.838C363.565 383.826 363.877 383.776 364.239 383.649C364.91 383.403 365.002 383.633 365.903 383.415C366.81 383.179 367.292 382.876 368.369 382.75C369.454 382.597 369.511 381.996 371.021 381.76C372.547 381.466 372.444 380.841 373.668 380.04C374.892 379.232 376.544 378.308 377.174 377.649C377.188 377.635 377.203 377.62 377.217 377.606C377.843 376.969 378.582 376.065 379.367 375.1C380.182 374.111 380.779 372.647 381.451 371.408C382.15 370.178 382.868 368.272 383.158 367.368C383.456 366.47 383.519 366.24 383.553 365.324C383.569 364.799 383.662 364.091 383.819 363.486C383.894 363.18 384.007 363.242 384.058 363.558C384.13 364.028 384.053 364.402 384.173 364.642C384.407 365.134 384.491 365.368 384.257 365.944C384.019 366.514 384.322 366.862 384.218 367.198C384.098 367.544 383.946 367.492 383.639 369.271C383.297 371.05 382.912 371.984 382.667 372.628C382.421 373.28 381.591 374.47 381.016 375.435C380.484 376.411 379.001 378.073 378.351 378.79C378.337 378.806 378.324 378.821 378.311 378.837C377.707 379.55 377.538 379.373 376.889 379.738Z" fill="#E8891F"/>
<path d="M374.174 376.456C373.646 376.74 373.564 377.408 372.903 377.759C372.244 378.095 372.027 377.928 371.325 378.367C370.615 378.802 369.779 378.952 369.476 379.177C369.167 379.405 369.023 379.12 368.558 379.346C368.083 379.571 367.769 379.613 367.304 379.621C366.844 379.64 365.479 379.793 364.995 379.957C364.507 380.138 363.911 379.946 363.576 379.892C363.46 379.876 363.387 379.852 363.318 379.826C363.299 379.815 363.277 379.794 363.285 379.774C363.285 379.774 363.285 379.774 363.285 379.774C363.28 379.748 363.305 379.724 363.336 379.722C363.505 379.712 363.754 379.67 364.044 379.566C364.58 379.364 364.654 379.554 365.374 379.377C366.099 379.186 366.483 378.938 367.345 378.841C368.213 378.722 368.254 378.227 369.463 378.046C370.687 377.819 370.598 377.305 371.574 376.664C372.55 376.017 373.876 375.285 374.379 374.759C374.39 374.747 374.402 374.736 374.413 374.724C374.912 374.215 375.502 373.491 376.13 372.722C376.783 371.933 377.256 370.761 377.796 369.772C378.358 368.791 378.937 367.268 379.171 366.546C379.412 365.829 379.463 365.644 379.489 364.912C379.5 364.492 379.576 363.926 379.705 363.442C379.768 363.197 379.86 363.247 379.903 363.499C379.962 363.876 379.9 364.175 379.999 364.367C380.193 364.761 380.263 364.949 380.071 365.41C379.877 365.866 380.128 366.146 380.044 366.415C379.947 366.692 379.82 366.649 379.578 368.074C379.308 369.499 379.001 370.248 378.806 370.765C378.609 371.287 377.941 372.238 377.481 373.012C377.057 373.795 375.867 375.125 375.348 375.701C375.337 375.713 375.327 375.726 375.317 375.738C374.834 376.311 374.695 376.166 374.174 376.456Z" fill="#E8891F"/>
<path d="M370.98 372.558C370.616 372.754 370.559 373.216 370.102 373.458C369.646 373.691 369.496 373.575 369.011 373.878C368.52 374.18 367.943 374.283 367.733 374.439C367.52 374.596 367.42 374.399 367.099 374.555C366.77 374.711 366.554 374.74 366.232 374.745C365.914 374.759 364.971 374.864 364.636 374.978C364.299 375.103 363.887 374.97 363.655 374.933C363.575 374.921 363.524 374.905 363.477 374.887C363.464 374.88 363.449 374.865 363.454 374.851C363.454 374.851 363.454 374.851 363.454 374.851C363.451 374.833 363.468 374.817 363.489 374.815C363.606 374.808 363.778 374.78 363.978 374.707C364.349 374.568 364.4 374.699 364.898 374.577C365.399 374.445 365.664 374.273 366.26 374.206C366.86 374.124 366.888 373.782 367.725 373.657C368.57 373.5 368.509 373.145 369.183 372.702C369.858 372.255 370.774 371.749 371.122 371.385C371.13 371.377 371.138 371.369 371.146 371.361C371.491 371.009 371.898 370.509 372.333 369.977C372.784 369.431 373.111 368.621 373.484 367.938C373.873 367.26 374.273 366.207 374.435 365.708C374.601 365.212 374.637 365.085 374.654 364.578C374.662 364.288 374.715 363.897 374.804 363.562C374.847 363.393 374.911 363.428 374.94 363.602C374.981 363.863 374.938 364.069 375.006 364.202C375.141 364.474 375.189 364.604 375.057 364.923C374.922 365.238 375.096 365.431 375.038 365.617C374.97 365.809 374.883 365.779 374.716 366.764C374.529 367.749 374.317 368.267 374.182 368.624C374.046 368.985 373.584 369.642 373.266 370.177C372.973 370.718 372.151 371.638 371.792 372.035C371.784 372.044 371.777 372.053 371.77 372.062C371.437 372.458 371.341 372.357 370.98 372.558Z" fill="#E8891F"/>
</svg>
